<svg width="27.876831" height="28.258667" viewBox="0 0 27.8768 28.2587" fill="none" xmlns="http://www.w3.org/2000/svg" xmlns:xlink="http://www.w3.org/1999/xlink">
	<desc>
			Created with Pixso.
	</desc>
	<defs/>
	<path id="Vector" d="M16.8894 19.9794C15.0464 21.1981 12.8167 21.869 10.4408 21.771C4.43164 21.5228 -0.23877 16.4497 0.00939941 10.4403C0.257568 4.43091 5.33044 -0.23877 11.3396 0.00939941C17.3478 0.257568 22.0192 5.32959 21.771 11.3391C21.6836 13.4574 20.9965 15.4093 19.8801 17.0382L27.2168 24.1616C28.1219 25.1431 28.0896 26.6602 27.1595 27.6001L27.1167 27.6394L27.0715 27.6786C26.0605 28.5281 24.546 28.437 23.6417 27.4548L16.8894 19.9794ZM10.5446 19.2593C5.92236 19.0684 2.32959 15.1659 2.52051 10.5437C2.7113 5.92139 6.61365 2.32861 11.236 2.51953C15.8582 2.71045 19.451 6.61279 19.2601 11.235C19.0692 15.8573 15.1667 19.4501 10.5446 19.2593Z" fill="#FFFFFF" fill-opacity="1.000000" fill-rule="evenodd"/>
</svg>
